<svg xmlns="http://www.w3.org/2000/svg" xmlns:xlink="http://www.w3.org/1999/xlink" width="500" zoomAndPan="magnify" viewBox="0 0 375 187.499995" height="250" preserveAspectRatio="xMidYMid meet" version="1.0"><defs><g/><clipPath id="30f706d1d0"><path d="M 0.59375 0.953125 L 155 0.953125 L 155 166.351562 L 0.59375 166.351562 Z M 0.59375 0.953125 " clip-rule="nonzero"/></clipPath><clipPath id="12f62b73b2"><rect x="0" width="155" y="0" height="167"/></clipPath><clipPath id="f353306d35"><path d="M 117 58 L 290.222656 58 L 290.222656 103 L 117 103 Z M 117 58 " clip-rule="nonzero"/></clipPath><clipPath id="bcfef4decf"><rect x="0" width="174" y="0" height="45"/></clipPath><clipPath id="d1faa50efc"><rect x="0" width="291" y="0" height="167"/></clipPath></defs><g transform="matrix(1, 0, 0, 1, 54, 17)"><g clip-path="url(#d1faa50efc)"><g clip-path="url(#30f706d1d0)"><g transform="matrix(1, 0, 0, 1, -0.000000000000014211, -0.000000000000003553)"><g clip-path="url(#12f62b73b2)"><g fill="#951ad3" fill-opacity="1"><g transform="translate(0.929814, 132.601053)"><g><path d="M 32.203125 0 L 25.46875 -35.65625 L 21.75 -23.125 L 21.75 0 L 3.984375 0 L 3.984375 -91.671875 L 21.75 -91.671875 L 21.75 -51.75 L 31.796875 -91.671875 L 49 -91.671875 L 37.84375 -53.125 L 49.96875 0 Z M 32.203125 0 "/></g></g></g><g fill="#951ad3" fill-opacity="1"><g transform="translate(47.312133, 132.601053)"><g><path d="M 3.984375 0 L 3.984375 -91.671875 L 21.75 -91.671875 L 21.75 0 Z M 3.984375 0 "/></g></g></g><g fill="#951ad3" fill-opacity="1"><g transform="translate(68.920521, 132.601053)"><g><path d="M 3.984375 0 L 3.984375 -91.671875 L 21.609375 -91.671875 L 21.609375 -15.6875 L 40.1875 -15.6875 L 40.1875 0 Z M 3.984375 0 "/></g></g></g><g fill="#951ad3" fill-opacity="1"><g transform="translate(105.530903, 132.601053)"><g><path d="M 47.765625 -19.40625 C 47.765625 -16.289062 47.1875 -13.421875 46.03125 -10.796875 C 44.882812 -8.179688 43.300781 -5.957031 41.28125 -4.125 C 39.269531 -2.289062 36.929688 -0.847656 34.265625 0.203125 C 31.609375 1.265625 28.71875 1.796875 25.59375 1.796875 C 22.476562 1.796875 19.566406 1.265625 16.859375 0.203125 C 14.148438 -0.847656 11.785156 -2.289062 9.765625 -4.125 C 7.753906 -5.957031 6.171875 -8.179688 5.015625 -10.796875 C 3.867188 -13.421875 3.296875 -16.289062 3.296875 -19.40625 L 3.296875 -72.265625 C 3.296875 -75.378906 3.867188 -78.222656 5.015625 -80.796875 C 6.171875 -83.367188 7.753906 -85.59375 9.765625 -87.46875 C 11.785156 -89.351562 14.148438 -90.800781 16.859375 -91.8125 C 19.566406 -92.820312 22.476562 -93.328125 25.59375 -93.328125 C 28.71875 -93.328125 31.609375 -92.820312 34.265625 -91.8125 C 36.929688 -90.800781 39.269531 -89.351562 41.28125 -87.46875 C 43.300781 -85.59375 44.882812 -83.367188 46.03125 -80.796875 C 47.1875 -78.222656 47.765625 -75.378906 47.765625 -72.265625 Z M 29.734375 -73.359375 C 29.734375 -74.648438 29.34375 -75.640625 28.5625 -76.328125 C 27.78125 -77.015625 26.789062 -77.359375 25.59375 -77.359375 C 24.40625 -77.359375 23.394531 -77.015625 22.5625 -76.328125 C 21.738281 -75.640625 21.328125 -74.648438 21.328125 -73.359375 L 21.328125 -18.3125 C 21.328125 -17.019531 21.738281 -16.03125 22.5625 -15.34375 C 23.394531 -14.65625 24.40625 -14.3125 25.59375 -14.3125 C 26.789062 -14.3125 27.78125 -14.65625 28.5625 -15.34375 C 29.34375 -16.03125 29.734375 -17.019531 29.734375 -18.3125 Z M 29.734375 -73.359375 "/></g></g></g></g></g></g><g clip-path="url(#f353306d35)"><g transform="matrix(1, 0, 0, 1, 117, 58)"><g clip-path="url(#bcfef4decf)"><path fill="#29b554" d="M 1.09375 1.355469 L 172.449219 1.355469 L 172.449219 43.941406 L 1.09375 43.941406 L 1.09375 1.355469 " fill-opacity="1" fill-rule="nonzero"/><g fill="#000000" fill-opacity="1"><g transform="translate(12.262688, 32.373322)"><g><path d="M 18.625 0 L 18.625 -12.8125 C 18.625 -14.226562 18.664062 -15.59375 18.75 -16.90625 C 18.300781 -15.28125 17.898438 -14.007812 17.546875 -13.09375 L 12.578125 0 L 10.75 0 L 5.71875 -13.09375 L 4.96875 -15.40625 L 4.515625 -16.90625 L 4.546875 -15.390625 L 4.609375 -12.8125 L 4.609375 0 L 2.296875 0 L 2.296875 -19.203125 L 5.71875 -19.203125 L 10.828125 -5.890625 C 11.003906 -5.347656 11.175781 -4.769531 11.34375 -4.15625 C 11.519531 -3.550781 11.632812 -3.109375 11.6875 -2.828125 C 11.757812 -3.191406 11.910156 -3.742188 12.140625 -4.484375 C 12.367188 -5.234375 12.523438 -5.703125 12.609375 -5.890625 L 17.625 -19.203125 L 20.96875 -19.203125 L 20.96875 0 Z M 18.625 0 "/></g></g></g><g fill="#000000" fill-opacity="1"><g transform="translate(39.151935, 32.373322)"><g><path d="M 2.578125 0 L 2.578125 -19.203125 L 5.1875 -19.203125 L 5.1875 0 Z M 2.578125 0 "/></g></g></g><g fill="#000000" fill-opacity="1"><g transform="translate(50.539772, 32.373322)"><g><path d="M 17.34375 -5.296875 C 17.34375 -3.523438 16.648438 -2.15625 15.265625 -1.1875 C 13.878906 -0.21875 11.925781 0.265625 9.40625 0.265625 C 4.726562 0.265625 2.015625 -1.359375 1.265625 -4.609375 L 3.796875 -5.109375 C 4.078125 -3.953125 4.691406 -3.101562 5.640625 -2.5625 C 6.585938 -2.03125 7.875 -1.765625 9.5 -1.765625 C 11.1875 -1.765625 12.484375 -2.050781 13.390625 -2.625 C 14.304688 -3.195312 14.765625 -4.046875 14.765625 -5.171875 C 14.765625 -5.796875 14.617188 -6.300781 14.328125 -6.6875 C 14.046875 -7.082031 13.644531 -7.40625 13.125 -7.65625 C 12.613281 -7.914062 12 -8.128906 11.28125 -8.296875 C 10.5625 -8.472656 9.765625 -8.660156 8.890625 -8.859375 C 7.367188 -9.191406 6.210938 -9.523438 5.421875 -9.859375 C 4.640625 -10.203125 4.019531 -10.578125 3.5625 -10.984375 C 3.113281 -11.398438 2.769531 -11.882812 2.53125 -12.4375 C 2.289062 -13 2.171875 -13.640625 2.171875 -14.359375 C 2.171875 -16.003906 2.796875 -17.269531 4.046875 -18.15625 C 5.304688 -19.050781 7.113281 -19.5 9.46875 -19.5 C 11.644531 -19.5 13.3125 -19.160156 14.46875 -18.484375 C 15.625 -17.816406 16.429688 -16.679688 16.890625 -15.078125 L 14.328125 -14.625 C 14.046875 -15.644531 13.507812 -16.382812 12.71875 -16.84375 C 11.925781 -17.300781 10.832031 -17.53125 9.4375 -17.53125 C 7.894531 -17.53125 6.71875 -17.273438 5.90625 -16.765625 C 5.101562 -16.253906 4.703125 -15.5 4.703125 -14.5 C 4.703125 -13.90625 4.859375 -13.414062 5.171875 -13.03125 C 5.484375 -12.644531 5.9375 -12.316406 6.53125 -12.046875 C 7.125 -11.773438 8.300781 -11.445312 10.0625 -11.0625 C 10.65625 -10.925781 11.242188 -10.785156 11.828125 -10.640625 C 12.410156 -10.503906 12.96875 -10.335938 13.5 -10.140625 C 14.039062 -9.941406 14.546875 -9.707031 15.015625 -9.4375 C 15.484375 -9.175781 15.890625 -8.851562 16.234375 -8.46875 C 16.578125 -8.09375 16.847656 -7.644531 17.046875 -7.125 C 17.242188 -6.613281 17.34375 -6.003906 17.34375 -5.296875 Z M 17.34375 -5.296875 "/></g></g></g><g fill="#000000" fill-opacity="1"><g transform="translate(72.79359, 32.373322)"><g><path d="M 9.8125 -17.078125 L 9.8125 0 L 7.21875 0 L 7.21875 -17.078125 L 0.625 -17.078125 L 0.625 -19.203125 L 16.421875 -19.203125 L 16.421875 -17.078125 Z M 9.8125 -17.078125 "/></g></g></g><g fill="#000000" fill-opacity="1"><g transform="translate(93.479549, 32.373322)"><g><path d="M 2.296875 0 L 2.296875 -19.203125 L 16.859375 -19.203125 L 16.859375 -17.078125 L 4.890625 -17.078125 L 4.890625 -10.921875 L 16.046875 -10.921875 L 16.046875 -8.828125 L 4.890625 -8.828125 L 4.890625 -2.125 L 17.421875 -2.125 L 17.421875 0 Z M 2.296875 0 "/></g></g></g><g fill="#000000" fill-opacity="1"><g transform="translate(115.733368, 32.373322)"><g><path d="M 15.875 0 L 10.875 -7.96875 L 4.890625 -7.96875 L 4.890625 0 L 2.296875 0 L 2.296875 -19.203125 L 11.328125 -19.203125 C 13.492188 -19.203125 15.164062 -18.71875 16.34375 -17.75 C 17.519531 -16.789062 18.109375 -15.445312 18.109375 -13.71875 C 18.109375 -12.289062 17.691406 -11.085938 16.859375 -10.109375 C 16.023438 -9.140625 14.878906 -8.53125 13.421875 -8.28125 L 18.875 0 Z M 15.484375 -13.6875 C 15.484375 -14.800781 15.101562 -15.648438 14.34375 -16.234375 C 13.59375 -16.828125 12.503906 -17.125 11.078125 -17.125 L 4.890625 -17.125 L 4.890625 -10.03125 L 11.171875 -10.03125 C 12.546875 -10.03125 13.609375 -10.347656 14.359375 -10.984375 C 15.109375 -11.628906 15.484375 -12.53125 15.484375 -13.6875 Z M 15.484375 -13.6875 "/></g></g></g><g fill="#000000" fill-opacity="1"><g transform="translate(139.023318, 32.373322)"><g><path d="M 10.59375 -7.96875 L 10.59375 0 L 8 0 L 8 -7.96875 L 0.609375 -19.203125 L 3.484375 -19.203125 L 9.328125 -10.0625 L 15.140625 -19.203125 L 18.015625 -19.203125 Z M 10.59375 -7.96875 "/></g></g></g></g></g></g></g></g></svg>